<svg xmlns="http://www.w3.org/2000/svg" viewBox="0 0 19.7 23.96"><title>Asset 1</title><g id="Layer_2" data-name="Layer 2"><g id="Layer_1-2" data-name="Layer 1"><path d="M0,9.4l.14-.06L4.49,6.82a.23.23,0,0,1,.25,0L6,7.53l.15.08V4.86a.2.2,0,0,1,.12-.21l3.52-2a.2.2,0,0,1,.22,0c1.16.68,2.33,1.36,3.51,2a.2.2,0,0,1,.12.22V7.6l.16-.08L15,6.82a.21.21,0,0,1,.24,0c1.45.85,2.92,1.69,4.38,2.53a.22.22,0,0,1,.11.21v5c0,.08,0,.14-.09.19L15.8,17l-.08,0c0-.06,0-.1,0-.14,0-.39,0-.78,0-1.17a.21.21,0,0,1,.12-.21l2.48-1.43a.2.2,0,0,0,.12-.2v-3.6a.2.2,0,0,0-.11-.19L15.2,8.27a.19.19,0,0,0-.22,0L12.5,9.72a.23.23,0,0,1-.28,0c-.36-.22-.73-.42-1.12-.65L11.24,9l1-.59a.24.24,0,0,0,.09-.15c0-.91,0-1.81,0-2.71a.18.18,0,0,0-.08-.14L9.93,4a.16.16,0,0,0-.15,0L7.44,5.39a.18.18,0,0,0-.08.14c0,.9,0,1.81,0,2.71a.22.22,0,0,0,.1.15l1,.59.13.08c-.42.24-.81.48-1.21.7,0,0-.12,0-.17,0L4.74,8.29a.21.21,0,0,0-.25,0L1.4,10.07a.21.21,0,0,0-.12.22v3.57a.23.23,0,0,0,.13.22l2.46,1.41a.23.23,0,0,1,.13.24c0,.42,0,.85,0,1.3l-4-2.3Z"/><path d="M9.84,24,8.61,22.41l-.22-.28.09-.07,1.28-.77a.17.17,0,0,1,.15,0c.47.27.93.55,1.41.84l-.11.15c-.42.53-.85,1.06-1.27,1.6a.61.61,0,0,0-.07.1Z"/><path d="M14.35,18.32l-.8,1-.15-.08-3.43-2a.2.2,0,0,0-.24,0l-3.42,2-.15.08-.79-1,.14-.08,4.21-2.45a.24.24,0,0,1,.26,0l4.23,2.45Z"/><path d="M10.5,10.12l1.18.69a.21.21,0,0,1,.07.17c0,.95,0,1.9,0,2.84a.27.27,0,0,0,.16.27l2.42,1.39a.21.21,0,0,1,.12.21V17L14.33,17l-3.74-2.16a.15.15,0,0,1-.1-.16v-4.4A.49.49,0,0,1,10.5,10.12Z"/><path d="M5.26,17c0-.48,0-.94,0-1.4,0,0,.06-.09.11-.12l2.44-1.41A.24.24,0,0,0,8,13.84c0-.95,0-1.9,0-2.86a.2.2,0,0,1,.12-.2l1-.59.12-.06a.81.81,0,0,1,0,.15V14.6a.18.18,0,0,1-.1.19L5.36,17Z"/><path d="M7.68,21.23l-.8-1L7,20.15l2.74-1.58a.18.18,0,0,1,.2,0l2.82,1.63.07.05-.79,1a.61.61,0,0,1-.14-.07L10,20a.21.21,0,0,0-.25,0Z"/><path d="M7.87,2.84l-1.11.64a2.09,2.09,0,0,1-.14-.17c-.31-.37-.61-.74-.93-1.1a.26.26,0,0,0-.19-.09c-.37,0-.75,0-1.14,0V0H6.47a4.12,4.12,0,0,1,0,.61,1.12,1.12,0,0,0,.34,1c.35.37.65.77,1,1.16Z"/><path d="M11.83,2.84c.43-.52.84-1,1.26-1.51a.54.54,0,0,0,.16-.42c0-.3,0-.6,0-.91h2.12V2.12H14.22a.25.25,0,0,0-.21.1L13,3.37l-.1.11Z"/></g></g></svg>